{
  "accessors": [
    {
      "bufferView": 1,
      "componentType": 5126,
      "count": 65532,
      "max": [
        2.3076558113098145,
        1.0989553928375244,
        2.8603947162628174
      ],
      "min": [
        -2.2415242195129395,
        -0.57495021820068359,
        -1.6565088033676147
      ],
      "type": "VEC3"
    },
    {
      "bufferView": 1,
      "byteOffset": 786384,
      "componentType": 5126,
      "count": 65532,
      "max": [
        0.9999997615814209,
        0.99998670816421509,
        0.99994540214538574
      ],
      "min": [
        -0.99999457597732544,
        -0.99997562170028687,
        -0.99989283084869385
      ],
      "type": "VEC3"
    },
    {
      "bufferView": 2,
      "componentType": 5126,
      "count": 65532,
      "max": [
        0.83137255907058716,
        0.50196081399917603,
        0.50196081399917603,
        1
      ],
      "min": [
        0,
        0,
        0,
        1
      ],
      "type": "VEC4"
    },
    {
      "bufferView": 0,
      "componentType": 5125,
      "count": 340869,
      "max": [
        65531
      ],
      "min": [
        0
      ],
      "type": "SCALAR"
    },
    {
      "bufferView": 1,
      "byteOffset": 1572768,
      "componentType": 5126,
      "count": 65532,
      "max": [
        1.7891161441802979,
        1.2935086488723755,
        2.5911667346954346
      ],
      "min": [
        -1.3151512145996094,
        -0.55209565162658691,
        -3.465937614440918
      ],
      "type": "VEC3"
    },
    {
      "bufferView": 1,
      "byteOffset": 2359152,
      "componentType": 5126,
      "count": 65532,
      "max": [
        0.9999968409538269,
        0.99996495246887207,
        0.99999994039535522
      ],
      "min": [
        -0.99997532367706299,
        -0.99994897842407227,
        -0.99999994039535522
      ],
      "type": "VEC3"
    },
    {
      "bufferView": 2,
      "byteOffset": 1048512,
      "componentType": 5126,
      "count": 65532,
      "max": [
        0.87058824300765991,
        0.85490196943283081,
        0.68235296010971069,
        1
      ],
      "min": [
        0,
        0,
        0,
        1
      ],
      "type": "VEC4"
    },
    {
      "bufferView": 0,
      "byteOffset": 1363476,
      "componentType": 5125,
      "count": 320538,
      "max": [
        65531
      ],
      "min": [
        0
      ],
      "type": "SCALAR"
    },
    {
      "bufferView": 1,
      "byteOffset": 3145536,
      "componentType": 5126,
      "count": 65532,
      "max": [
        1.4476313591003418,
        1.3674764633178711,
        3.2009983062744141
      ],
      "min": [
        -1.4543368816375732,
        -0.43244644999504089,
        -3.470029354095459
      ],
      "type": "VEC3"
    },
    {
      "bufferView": 1,
      "byteOffset": 3931920,
      "componentType": 5126,
      "count": 65532,
      "max": [
        0.9999847412109375,
        0.99996906518936157,
        0.9999687671661377
      ],
      "min": [
        -0.99999880790710449,
        -0.99995213747024536,
        -0.99999725818634033
      ],
      "type": "VEC3"
    },
    {
      "bufferView": 2,
      "byteOffset": 2097024,
      "componentType": 5126,
      "count": 65532,
      "max": [
        0.85882353782653809,
        0.84313726425170898,
        0.67058825492858887,
        1
      ],
      "min": [
        0,
        0,
        0,
        1
      ],
      "type": "VEC4"
    },
    {
      "bufferView": 0,
      "byteOffset": 2645628,
      "componentType": 5125,
      "count": 347682,
      "max": [
        65531
      ],
      "min": [
        0
      ],
      "type": "SCALAR"
    },
    {
      "bufferView": 1,
      "byteOffset": 4718304,
      "componentType": 5126,
      "count": 65532,
      "max": [
        2.1593012809753418,
        1.3480918407440186,
        3.1056392192840576
      ],
      "min": [
        -2.3561868667602539,
        -0.50708544254302979,
        -3.4705073833465576
      ],
      "type": "VEC3"
    },
    {
      "bufferView": 1,
      "byteOffset": 5504688,
      "componentType": 5126,
      "count": 65532,
      "max": [
        0.99998098611831665,
        0.99995118379592896,
        0.99999988079071045
      ],
      "min": [
        -0.99998217821121216,
        -0.99997806549072266,
        -0.99999707937240601
      ],
      "type": "VEC3"
    },
    {
      "bufferView": 2,
      "byteOffset": 3145536,
      "componentType": 5126,
      "count": 65532,
      "max": [
        0.84705883264541626,
        0.83137255907058716,
        0.66274511814117432,
        1
      ],
      "min": [
        0,
        0,
        0,
        1
      ],
      "type": "VEC4"
    },
    {
      "bufferView": 0,
      "byteOffset": 4036356,
      "componentType": 5125,
      "count": 320499,
      "max": [
        65531
      ],
      "min": [
        0
      ],
      "type": "SCALAR"
    },
    {
      "bufferView": 1,
      "byteOffset": 6291072,
      "componentType": 5126,
      "count": 65532,
      "max": [
        2.3566851615905762,
        1.3625209331512451,
        2.5935244560241699
      ],
      "min": [
        -2.3277511596679688,
        -0.51627606153488159,
        -3.4704644680023193
      ],
      "type": "VEC3"
    },
    {
      "bufferView": 1,
      "byteOffset": 7077456,
      "componentType": 5126,
      "count": 65532,
      "max": [
        0.99997997283935547,
        0.99998325109481812,
        0.99999988079071045
      ],
      "min": [
        -0.9999542236328125,
        -0.99994915723800659,
        -0.99988853931427002
      ],
      "type": "VEC3"
    },
    {
      "bufferView": 2,
      "byteOffset": 4194048,
      "componentType": 5126,
      "count": 65532,
      "max": [
        0.87058824300765991,
        0.85490196943283081,
        0.68235296010971069,
        1
      ],
      "min": [
        0,
        0,
        0,
        1
      ],
      "type": "VEC4"
    },
    {
      "bufferView": 0,
      "byteOffset": 5318352,
      "componentType": 5125,
      "count": 314280,
      "max": [
        65531
      ],
      "min": [
        0
      ],
      "type": "SCALAR"
    },
    {
      "bufferView": 1,
      "byteOffset": 7863840,
      "componentType": 5126,
      "count": 65532,
      "max": [
        2.317852258682251,
        1.3623006343841553,
        3.138702392578125
      ],
      "min": [
        -2.3433232307434082,
        -0.57339221239089966,
        -3.4705073833465576
      ],
      "type": "VEC3"
    },
    {
      "bufferView": 1,
      "byteOffset": 8650224,
      "componentType": 5126,
      "count": 65532,
      "max": [
        0.99999457597732544,
        0.99995416402816772,
        0.99999988079071045
      ],
      "min": [
        -0.99999457597732544,
        -0.99994730949401855,
        -0.99998581409454346
      ],
      "type": "VEC3"
    },
    {
      "bufferView": 2,
      "byteOffset": 5242560,
      "componentType": 5126,
      "count": 65532,
      "max": [
        0.87058824300765991,
        0.85490196943283081,
        0.68235296010971069,
        1
      ],
      "min": [
        0,
        0,
        0,
        1
      ],
      "type": "VEC4"
    },
    {
      "bufferView": 0,
      "byteOffset": 6575472,
      "componentType": 5125,
      "count": 234858,
      "max": [
        65531
      ],
      "min": [
        0
      ],
      "type": "SCALAR"
    },
    {
      "bufferView": 1,
      "byteOffset": 9436608,
      "componentType": 5126,
      "count": 65532,
      "max": [
        2.355830192565918,
        1.3674650192260742,
        3.1973521709442139
      ],
      "min": [
        -2.3511698246002197,
        -0.56806439161300659,
        -3.4699776172637939
      ],
      "type": "VEC3"
    },
    {
      "bufferView": 1,
      "byteOffset": 10222992,
      "componentType": 5126,
      "count": 65532,
      "max": [
        0.99998098611831665,
        0.99994575977325439,
        0.99999606609344482
      ],
      "min": [
        -0.99999302625656128,
        -0.99997562170028687,
        -0.99998611211776733
      ],
      "type": "VEC3"
    },
    {
      "bufferView": 2,
      "byteOffset": 6291072,
      "componentType": 5126,
      "count": 65532,
      "max": [
        0.83137255907058716,
        0.80392158031463623,
        0.64313727617263794,
        1
      ],
      "min": [
        0,
        0,
        0,
        1
      ],
      "type": "VEC4"
    },
    {
      "bufferView": 0,
      "byteOffset": 7514904,
      "componentType": 5125,
      "count": 102702,
      "max": [
        65531
      ],
      "min": [
        0
      ],
      "type": "SCALAR"
    },
    {
      "bufferView": 1,
      "byteOffset": 11009376,
      "componentType": 5126,
      "count": 65532,
      "max": [
        2.3031458854675293,
        1.3549638986587524,
        3.1826319694519043
      ],
      "min": [
        -2.3396472930908203,
        -0.5699581503868103,
        -3.4659326076507568
      ],
      "type": "VEC3"
    },
    {
      "bufferView": 1,
      "byteOffset": 11795760,
      "componentType": 5126,
      "count": 65532,
      "max": [
        0.99999314546585083,
        0.99997609853744507,
        0.99989622831344604
      ],
      "min": [
        -0.99999493360519409,
        -0.99998670816421509,
        -0.99988001585006714
      ],
      "type": "VEC3"
    },
    {
      "bufferView": 2,
      "byteOffset": 7339584,
      "componentType": 5126,
      "count": 65532,
      "max": [
        1,
        1,
        1,
        1
      ],
      "min": [
        0,
        0,
        0,
        1
      ],
      "type": "VEC4"
    },
    {
      "bufferView": 0,
      "byteOffset": 7925712,
      "componentType": 5125,
      "count": 309786,
      "max": [
        65531
      ],
      "min": [
        0
      ],
      "type": "SCALAR"
    },
    {
      "bufferView": 1,
      "byteOffset": 12582144,
      "componentType": 5126,
      "count": 65532,
      "max": [
        1.784669041633606,
        1.3547227382659912,
        2.5861687660217285
      ],
      "min": [
        -0.74628549814224243,
        -0.54710298776626587,
        -3.4609794616699219
      ],
      "type": "VEC3"
    },
    {
      "bufferView": 1,
      "byteOffset": 13368528,
      "componentType": 5126,
      "count": 65532,
      "max": [
        0.99998533725738525,
        0.99993062019348145,
        1
      ],
      "min": [
        -0.99997997283935547,
        -0.99996906518936157,
        -1
      ],
      "type": "VEC3"
    },
    {
      "bufferView": 2,
      "byteOffset": 8388096,
      "componentType": 5126,
      "count": 65532,
      "max": [
        0.87058824300765991,
        0.85882353782653809,
        0.68627452850341797,
        1
      ],
      "min": [
        0.32941177487373352,
        0.11764705926179886,
        0.11764705926179886,
        1
      ],
      "type": "VEC4"
    },
    {
      "bufferView": 0,
      "byteOffset": 9164856,
      "componentType": 5125,
      "count": 350346,
      "max": [
        65531
      ],
      "min": [
        0
      ],
      "type": "SCALAR"
    },
    {
      "bufferView": 1,
      "byteOffset": 14154912,
      "componentType": 5126,
      "count": 65532,
      "max": [
        1.6176930665969849,
        1.3624787330627441,
        3.196000337600708
      ],
      "min": [
        -1.7280769348144531,
        -0.4349956214427948,
        -3.4650704860687256
      ],
      "type": "VEC3"
    },
    {
      "bufferView": 1,
      "byteOffset": 14941296,
      "componentType": 5126,
      "count": 65532,
      "max": [
        0.99999922513961792,
        0.99994540214538574,
        0.99999725818634033
      ],
      "min": [
        -0.9999997615814209,
        -0.99997282028198242,
        -0.99999916553497314
      ],
      "type": "VEC3"
    },
    {
      "bufferView": 2,
      "byteOffset": 9436608,
      "componentType": 5126,
      "count": 65532,
      "max": [
        0.87058824300765991,
        0.85490196943283081,
        0.68235296010971069,
        1
      ],
      "min": [
        0.22352941334247589,
        0.10588235408067703,
        0.10588235408067703,
        1
      ],
      "type": "VEC4"
    },
    {
      "bufferView": 0,
      "byteOffset": 10566240,
      "componentType": 5125,
      "count": 332592,
      "max": [
        65531
      ],
      "min": [
        0
      ],
      "type": "SCALAR"
    },
    {
      "bufferView": 1,
      "byteOffset": 15727680,
      "componentType": 5126,
      "count": 65532,
      "max": [
        2.3476142883300781,
        1.240472674369812,
        3.1694161891937256
      ],
      "min": [
        -2.351205587387085,
        -0.54710298776626587,
        -3.465507984161377
      ],
      "type": "VEC3"
    },
    {
      "bufferView": 1,
      "byteOffset": 16514064,
      "componentType": 5126,
      "count": 65532,
      "max": [
        0.9999660849571228,
        0.99982136487960815,
        0.99999696016311646
      ],
      "min": [
        -0.99998354911804199,
        -0.99995797872543335,
        -0.9999995231628418
      ],
      "type": "VEC3"
    },
    {
      "bufferView": 2,
      "byteOffset": 10485120,
      "componentType": 5126,
      "count": 65532,
      "max": [
        1,
        1,
        1,
        1
      ],
      "min": [
        0.21960784494876862,
        0.10980392247438431,
        0.10980392247438431,
        1
      ],
      "type": "VEC4"
    },
    {
      "bufferView": 0,
      "byteOffset": 11896608,
      "componentType": 5125,
      "count": 318585,
      "max": [
        65531
      ],
      "min": [
        0
      ],
      "type": "SCALAR"
    },
    {
      "bufferView": 1,
      "byteOffset": 17300448,
      "componentType": 5126,
      "count": 65532,
      "max": [
        2.3516983985900879,
        1.3521387577056885,
        3.1068618297576904
      ],
      "min": [
        -2.3428621292114258,
        -0.55664324760437012,
        -3.4650154113769531
      ],
      "type": "VEC3"
    },
    {
      "bufferView": 1,
      "byteOffset": 18086832,
      "componentType": 5126,
      "count": 65532,
      "max": [
        0.99998384714126587,
        0.99995088577270508,
        0.99999940395355225
      ],
      "min": [
        -0.99998152256011963,
        -0.99988514184951782,
        -0.9999992847442627
      ],
      "type": "VEC3"
    },
    {
      "bufferView": 2,
      "byteOffset": 11533632,
      "componentType": 5126,
      "count": 65532,
      "max": [
        1,
        1,
        1,
        1
      ],
      "min": [
        0.22352941334247589,
        0.10588235408067703,
        0.10588235408067703,
        1
      ],
      "type": "VEC4"
    },
    {
      "bufferView": 0,
      "byteOffset": 13170948,
      "componentType": 5125,
      "count": 314193,
      "max": [
        65531
      ],
      "min": [
        0
      ],
      "type": "SCALAR"
    },
    {
      "bufferView": 1,
      "byteOffset": 18873216,
      "componentType": 5126,
      "count": 65532,
      "max": [
        2.3450913429260254,
        1.3606998920440674,
        3.1956474781036377
      ],
      "min": [
        -2.346602201461792,
        -0.55274397134780884,
        -3.4646947383880615
      ],
      "type": "VEC3"
    },
    {
      "bufferView": 1,
      "byteOffset": 19659600,
      "componentType": 5126,
      "count": 65532,
      "max": [
        0.99995553493499756,
        0.99993336200714111,
        0.99999862909317017
      ],
      "min": [
        -0.99998998641967773,
        -0.99995076656341553,
        -0.99999982118606567
      ],
      "type": "VEC3"
    },
    {
      "bufferView": 2,
      "byteOffset": 12582144,
      "componentType": 5126,
      "count": 65532,
      "max": [
        1,
        1,
        1,
        1
      ],
      "min": [
        0.12941177189350128,
        0.10980392247438431,
        0.10980392247438431,
        1
      ],
      "type": "VEC4"
    },
    {
      "bufferView": 0,
      "byteOffset": 14427720,
      "componentType": 5125,
      "count": 245727,
      "max": [
        65531
      ],
      "min": [
        0
      ],
      "type": "SCALAR"
    },
    {
      "bufferView": 1,
      "byteOffset": 20445984,
      "componentType": 5126,
      "count": 47088,
      "max": [
        2.3476142883300781,
        1.3624353408813477,
        3.1931805610656738
      ],
      "min": [
        -2.3383944034576416,
        -0.56855988502502441,
        -3.4649112224578857
      ],
      "type": "VEC3"
    },
    {
      "bufferView": 1,
      "byteOffset": 21011040,
      "componentType": 5126,
      "count": 47088,
      "max": [
        0.9999624490737915,
        0.99997609853744507,
        0.99999833106994629
      ],
      "min": [
        -0.99998998641967773,
        -0.99989306926727295,
        -0.99999946355819702
      ],
      "type": "VEC3"
    },
    {
      "bufferView": 2,
      "byteOffset": 13630656,
      "componentType": 5126,
      "count": 47088,
      "max": [
        1,
        1,
        1,
        1
      ],
      "min": [
        0.14117647707462311,
        0.10588235408067703,
        0.10588235408067703,
        1
      ],
      "type": "VEC4"
    },
    {
      "bufferView": 0,
      "byteOffset": 15410628,
      "componentType": 5125,
      "count": 77739,
      "max": [
        47087
      ],
      "min": [
        0
      ],
      "type": "SCALAR"
    }
  ],
  "asset": {
    "generator": "Sketchfab (OSG glTF plugin)",
    "version": "2.0"
  },
  "bufferViews": [
    {
      "buffer": 0,
      "byteLength": 15721584,
      "byteOffset": 0,
      "name": "ScalarBufferView",
      "target": 34963
    },
    {
      "buffer": 0,
      "byteLength": 21576096,
      "byteOffset": 15721584,
      "byteStride": 12,
      "name": "Vec4BufferView",
      "target": 34962
    },
    {
      "buffer": 0,
      "byteLength": 14384064,
      "byteOffset": 37297680,
      "byteStride": 16,
      "name": "MatrixBufferView",
      "target": 34962
    }
  ],
  "buffers": [
    {
      "byteLength": 51681744,
      "uri": "picklerick.bin"
    }
  ],
  "materials": [
    {
      "doubleSided": false,
      "emissiveFactor": [
        0,
        0,
        0
      ],
      "name": "Scene - Root",
      "pbrMetallicRoughness": {
        "baseColorFactor": [
          1,
          1,
          1,
          1
        ],
        "metallicFactor": 0,
        "roughnessFactor": 0.59999999999999998
      }
    }
  ],
  "meshes": [
    {
      "name": "Group5324",
      "primitives": [
        {
          "attributes": {
            "COLOR_0": 2,
            "NORMAL": 1,
            "POSITION": 0
          },
          "indices": 3,
          "material": 0,
          "mode": 4
        },
        {
          "attributes": {
            "COLOR_0": 6,
            "NORMAL": 5,
            "POSITION": 4
          },
          "indices": 7,
          "material": 0,
          "mode": 4
        },
        {
          "attributes": {
            "COLOR_0": 10,
            "NORMAL": 9,
            "POSITION": 8
          },
          "indices": 11,
          "material": 0,
          "mode": 4
        },
        {
          "attributes": {
            "COLOR_0": 14,
            "NORMAL": 13,
            "POSITION": 12
          },
          "indices": 15,
          "material": 0,
          "mode": 4
        },
        {
          "attributes": {
            "COLOR_0": 18,
            "NORMAL": 17,
            "POSITION": 16
          },
          "indices": 19,
          "material": 0,
          "mode": 4
        },
        {
          "attributes": {
            "COLOR_0": 22,
            "NORMAL": 21,
            "POSITION": 20
          },
          "indices": 23,
          "material": 0,
          "mode": 4
        },
        {
          "attributes": {
            "COLOR_0": 26,
            "NORMAL": 25,
            "POSITION": 24
          },
          "indices": 27,
          "material": 0,
          "mode": 4
        },
        {
          "attributes": {
            "COLOR_0": 30,
            "NORMAL": 29,
            "POSITION": 28
          },
          "indices": 31,
          "material": 0,
          "mode": 4
        },
        {
          "attributes": {
            "COLOR_0": 34,
            "NORMAL": 33,
            "POSITION": 32
          },
          "indices": 35,
          "material": 0,
          "mode": 4
        },
        {
          "attributes": {
            "COLOR_0": 38,
            "NORMAL": 37,
            "POSITION": 36
          },
          "indices": 39,
          "material": 0,
          "mode": 4
        },
        {
          "attributes": {
            "COLOR_0": 42,
            "NORMAL": 41,
            "POSITION": 40
          },
          "indices": 43,
          "material": 0,
          "mode": 4
        },
        {
          "attributes": {
            "COLOR_0": 46,
            "NORMAL": 45,
            "POSITION": 44
          },
          "indices": 47,
          "material": 0,
          "mode": 4
        },
        {
          "attributes": {
            "COLOR_0": 50,
            "NORMAL": 49,
            "POSITION": 48
          },
          "indices": 51,
          "material": 0,
          "mode": 4
        },
        {
          "attributes": {
            "COLOR_0": 54,
            "NORMAL": 53,
            "POSITION": 52
          },
          "indices": 55,
          "material": 0,
          "mode": 4
        }
      ]
    }
  ],
  "nodes": [
    {
      "children": [
        1
      ],
      "name": "RootNode (gltf orientation matrix)",
      "rotation": [
        -0.70710678118654746,
        -0,
        -0,
        0.70710678118654757
      ]
    },
    {
      "children": [
        2
      ],
      "name": "RootNode (model correction matrix)"
    },
    {
      "children": [
        3
      ],
      "name": "PickleRick.OBJ.cleaner.materialmerger.gles"
    },
    {
      "mesh": 0,
      "name": "Group5324"
    }
  ],
  "scene": 0,
  "scenes": [
    {
      "name": "OSG_Scene",
      "nodes": [
        0
      ]
    }
  ]
}
