{
    "accessors": [{
        "bufferView": 1,
        "componentType": 5126,
        "count": 1996,
        "max": [2.1886100769042969, 2.2162599563598633, 2.5498700141906738],
        "min": [-2.1886100769042969, -2.2840700149536133, -3.0039501190185547],
        "type": "VEC3"
    }, {
        "bufferView": 1,
        "byteOffset": 23952,
        "componentType": 5126,
        "count": 1996,
        "max": [0.99995726346969604, 0.99062001705169678, 0.9850003719329834],
        "min": [-0.99995726346969604, -0.99089205265045166, -0.98199731111526489],
        "type": "VEC3"
    }, {
        "bufferView": 0,
        "componentType": 5125,
        "count": 2856,
        "max": [1995],
        "min": [0],
        "type": "SCALAR"
    }, {
        "bufferView": 1,
        "byteOffset": 47904,
        "componentType": 5126,
        "count": 924,
        "max": [2.4071199893951416, 0.99747997522354126, 0.981719970703125],
        "min": [-2.4071199893951416, -0.99976998567581177, -0.981719970703125],
        "type": "VEC3"
    }, {
        "bufferView": 1,
        "byteOffset": 58992,
        "componentType": 5126,
        "count": 924,
        "max": [0.9996151328086853, 0.98981648683547974, 0.98971587419509888],
        "min": [-0.9996151328086853, -0.98696660995483398, -0.98971587419509888],
        "type": "VEC3"
    }, {
        "bufferView": 0,
        "byteOffset": 11424,
        "componentType": 5125,
        "count": 1320,
        "max": [923],
        "min": [0],
        "type": "SCALAR"
    }, {
        "bufferView": 1,
        "byteOffset": 70080,
        "componentType": 5126,
        "count": 476,
        "max": [3.8389699459075928, 5.9404201507568359, 3.3844199180603027],
        "min": [0.15090000629425049, 0.5455399751663208, -0.53532999753952026],
        "type": "VEC3"
    }, {
        "bufferView": 1,
        "byteOffset": 75792,
        "componentType": 5126,
        "count": 476,
        "max": [0.99026906490325928, 0.98448890447616577, 0.9978523850440979],
        "min": [-0.9869844913482666, -0.99965882301330566, -0.98906624317169189],
        "type": "VEC3"
    }, {
        "bufferView": 0,
        "byteOffset": 16704,
        "componentType": 5125,
        "count": 696,
        "max": [475],
        "min": [0],
        "type": "SCALAR"
    }, {
        "bufferView": 1,
        "byteOffset": 81504,
        "componentType": 5126,
        "count": 688,
        "max": [7.5504398345947266, 8.029780387878418, 8.4914302825927734],
        "min": [-7.5504398345947266, -2.2235898971557617, -2.7961399555206299],
        "type": "VEC3"
    }, {
        "bufferView": 1,
        "byteOffset": 89760,
        "componentType": 5126,
        "count": 688,
        "max": [0.98976880311965942, 0.96050989627838135, 0.99585062265396118],
        "min": [-0.98976880311965942, -0.95606988668441772, -0.95861804485321045],
        "type": "VEC3"
    }, {
        "bufferView": 0,
        "byteOffset": 19488,
        "componentType": 5125,
        "count": 1032,
        "max": [687],
        "min": [0],
        "type": "SCALAR"
    }, {
        "bufferView": 1,
        "byteOffset": 98016,
        "componentType": 5126,
        "count": 240,
        "max": [9.1262502670288086, -22.680759429931641, 11.022830009460449],
        "min": [-9.1262502670288086, -37.559780120849609, 8.3038902282714844],
        "type": "VEC3"
    }, {
        "bufferView": 1,
        "byteOffset": 100896,
        "componentType": 5126,
        "count": 240,
        "max": [0.96422815322875977, 0.64428108930587769, 0.99857383966445923],
        "min": [-0.96422815322875977, -0.61976993083953857, -0.99748903512954712],
        "type": "VEC3"
    }, {
        "bufferView": 0,
        "byteOffset": 23616,
        "componentType": 5125,
        "count": 360,
        "max": [239],
        "min": [0],
        "type": "SCALAR"
    }],
    "asset": {
        "generator": "Sketchfab (OSG glTF plugin)",
        "version": "2.0"
    },
    "bufferViews": [{
        "buffer": 0,
        "byteLength": 25056,
        "byteOffset": 0,
        "name": "ScalarBufferView",
        "target": 34962
    }, {
        "buffer": 0,
        "byteLength": 103776,
        "byteOffset": 25056,
        "byteStride": 12,
        "name": "Vec3BufferView",
        "target": 34962
    }],
    "buffers": [{
        "byteLength": 128832,
        "uri": "trump.bin"
    }],
    "extensionsRequired": ["KHR_materials_pbrSpecularGlossiness"],
    "extensionsUsed": ["KHR_materials_pbrSpecularGlossiness"],
    "materials": [{
        "doubleSided": true,
        "emissiveFactor": [0, 0, 0],
        "extensions": {
            "KHR_materials_pbrSpecularGlossiness": {
                "diffuseFactor": [0.49203814099999998, 0.40555858630000002, 0.086931189199999995, 1],
                "glossinessFactor": 1,
                "specularFactor": [1, 1, 1]
            }
        },
        "name": "eyebrows"
    }, {
        "doubleSided": true,
        "emissiveFactor": [0, 0, 0],
        "extensions": {
            "KHR_materials_pbrSpecularGlossiness": {
                "diffuseFactor": [0.73253298550000001, 0.70753167319999999, 0.28556091140000001, 1],
                "glossinessFactor": 1,
                "specularFactor": [0.53000000000000003, 0.53000000000000003, 0.53000000000000003]
            }
        },
        "name": "side hair"
    }, {
        "doubleSided": true,
        "emissiveFactor": [0, 0, 0],
        "extensions": {
            "KHR_materials_pbrSpecularGlossiness": {
                "diffuseFactor": [0.97006797909999998, 0.70001655460000001, 0.092451112299999999, 1],
                "glossinessFactor": 1,
                "specularFactor": [0.13, 0.13, 0.13]
            }
        },
        "name": "tiop hair"
    }, {
        "doubleSided": true,
        "emissiveFactor": [0, 0, 0],
        "extensions": {
            "KHR_materials_pbrSpecularGlossiness": {
                "diffuseFactor": [0.80149452669999999, 0.38106089199999998, 0.033317450999999998, 1],
                "glossinessFactor": 0.26000000000000001,
                "specularFactor": [0.37, 0.37, 0.37]
            }
        },
        "name": "Material.002"
    }, {
        "doubleSided": true,
        "emissiveFactor": [0, 0, 0],
        "extensions": {
            "KHR_materials_pbrSpecularGlossiness": {
                "diffuseFactor": [1, 1, 1, 1],
                "glossinessFactor": 0.92574335630000004,
                "specularFactor": [1, 0.95538848639999996, 0.86583483220000002]
            }
        },
        "name": "Material.000"
    }],
    "meshes": [{
        "name": "GeodeCube.001",
        "primitives": [{
            "attributes": {
                "NORMAL": 1,
                "POSITION": 0
            },
            "indices": 2,
            "material": 3,
            "mode": 4
        }]
    }, {
        "name": "GeodeSphere",
        "primitives": [{
            "attributes": {
                "NORMAL": 4,
                "POSITION": 3
            },
            "indices": 5,
            "material": 4,
            "mode": 4
        }]
    }, {
        "name": "GeodePlane.002",
        "primitives": [{
            "attributes": {
                "NORMAL": 7,
                "POSITION": 6
            },
            "indices": 8,
            "material": 2,
            "mode": 4
        }]
    }, {
        "name": "GeodePlane.003",
        "primitives": [{
            "attributes": {
                "NORMAL": 10,
                "POSITION": 9
            },
            "indices": 11,
            "material": 1,
            "mode": 4
        }]
    }, {
        "name": "GeodeCube",
        "primitives": [{
            "attributes": {
                "NORMAL": 13,
                "POSITION": 12
            },
            "indices": 14,
            "material": 0,
            "mode": 4
        }]
    }],
    "nodes": [{
        "children": [1],
        "name": "RootNode (gltf orientation matrix)",
        "rotation": [-0.70710678118654746, -0, -0, 0.70710678118654757]
    }, {
        "children": [2],
        "name": "RootNode (model correction matrix)"
    }, {
        "children": [3, 7, 9, 11],
        "name": "Root"
    }, {
        "children": [4, 5],
        "matrix": [1, 0, 0, 0, 0, 1, 0, 0, 0, 0, 1, 0, 0, -0.32324000000000003, 0.5942400000000001, 1],
        "name": "Trump_head"
    }, {
        "mesh": 0,
        "name": "GeodeCube.001"
    }, {
        "children": [6],
        "matrix": [0.42908000000000007, 0, 0, 0, 0, 0.42908000000000007, 0, 0, 0, 0, 0.42908000000000007, 0, 0, -0.95835999999999999, 0.30436000000000007, 1],
        "name": "eyes"
    }, {
        "mesh": 1,
        "name": "GeodeSphere"
    }, {
        "children": [8],
        "matrix": [1, 0, 0, 0, 0, 1, 0, 0, 0, 0, 1, 0, -2.1015900000000003, -3.5331399999999999, 0.046450000000000012, 1],
        "name": "Hair_top"
    }, {
        "mesh": 2,
        "name": "GeodePlane.002"
    }, {
        "children": [10],
        "matrix": [0.28060000000000002, 0, 0, 0, 0, 0.28060000000000002, 0, 0, 0, 0, 0.28060000000000002, 0, 0, 0, 0, 1],
        "name": "Hair_side"
    }, {
        "mesh": 3,
        "name": "GeodePlane.003"
    }, {
        "children": [12],
        "matrix": [0.15627000000000002, 0, 0, 0, 0, 0.061250000000000013, 0, 0, 0, 0, 0.15536000000000003, 0, 0, 0, -0.023560000000000008, 1],
        "name": "Eyebrows"
    }, {
        "mesh": 4,
        "name": "GeodeCube"
    }],
    "scene": 0,
    "scenes": [{
        "name": "OSG_Scene",
        "nodes": [0]
    }]
}
